PathFileType	4	(X/Y/Z)	./resultDataOpenSim/trcMotMarkerGrf/sub06/qtm-03-06.trc
DataRate	CameraRate	NumFrames	NumMarkers	Units	OrigDataRate	OrigDataStartFrame	OrigNumFrames
250.000000	250.000000	5	24	m	250.000000	67	532
Frame#	Time	L.Toe.Tip			R.Toe.Tip			L.Ankle.Lat			R.Ankle.Lat			L.Ankle.Med			R.Ankle.Med			L.Heel			R.Heel			L.Knee.Lat			R.Knee.Lat			L.Knee.Med			R.Knee.Med			L.Thigh.Upper			R.Thigh.Upper			L.ASIS			R.ASIS			V.Sacral			L.Acromium			R.Acromium			C7			L.Elbow			R.Elbow			L.Wrist.Lat			R.Wrist.Lat
		X1	Y1	Z1	X2	Y2	Z2	X3	Y3	Z3	X4	Y4	Z4	X5	Y5	Z5	X6	Y6	Z6	X7	Y7	Z7	X8	Y8	Z8	X9	Y9	Z9	X10	Y10	Z10	X11	Y11	Z11	X12	Y12	Z12	X13	Y13	Z13	X14	Y14	Z14	X15	Y15	Z15	X16	Y16	Z16	X17	Y17	Z17	X18	Y18	Z18	X19	Y19	Z19	X20	Y20	Z20	X21	Y21	Z21	X22	Y22	Z22	X23	Y23	Z23	X24	Y24	Z24

67	0.264	-1.3160624	0.081696694	-0.057018194	-0.79269296	0.035314416	0.10313448	-1.3231145	0.21234938	-0.080245675	-0.92424372	0.060982975	0.13804377	-1.2981451	0.21460937	-0.0009698042	-0.91437303	0.081889374	0.050535942	-1.3684627	0.2651334	-0.025029705	-0.98557732	0.039703158	0.079901341	-0.99607065	0.39272688	-0.12731316	-0.85632136	0.44100188	0.16981892	-0.98116207	0.37389149	-0.0084060759	-0.89544989	0.43113001	0.048196921	-1.0272024	0.78301277	-0.10359	-0.98233189	0.79462979	0.23682285	-0.94468916	0.83054885	-0.069974221	-0.90150339	0.84347709	0.17144906	-1.1045585	0.91759206	0.081326794	-0.98207911	1.3230937	-0.1088287	-0.96873021	1.3011242	0.2533595	-1.0482699	1.3553958	0.075303637	-1.0125181	1.002622	-0.16929701	-1.0784039	1.003233	0.30406201	-0.8287838	0.83650685	-0.17788311	-0.96858658	0.79081148	0.34328651
68	0.268	-1.2995472	0.081977714	-0.057685067	-0.79279925	0.035337579	0.10321036	-1.3092629	0.21235259	-0.080001046	-0.92446065	0.060993161	0.13813621	-1.2847883	0.21485822	-0.00060569837	-0.91448233	0.082062099	0.050732636	-1.355435	0.2642514	-0.024460314	-0.98562771	0.039819695	0.079976479	-0.98416214	0.39515091	-0.12748228	-0.85528651	0.44104752	0.1702272	-0.96820117	0.37660557	-0.0084101374	-0.89461814	0.43152356	0.048525229	-1.0211722	0.7852849	-0.10330095	-0.97626671	0.79596281	0.23779024	-0.93899392	0.83253396	-0.069588942	-0.8958155	0.84499465	0.17249137	-1.0991698	0.91959396	0.081986376	-0.97694465	1.3250933	-0.10864024	-0.9623114	1.3034164	0.25342242	-1.0425058	1.3572796	0.075553746	-1.0087834	1.0048909	-0.168699	-1.070839	1.0050174	0.30495944	-0.826589	0.83720838	-0.1782498	-0.95915506	0.79340519	0.34354637
69	0.272	-1.2829279	0.082129332	-0.05834837	-0.7928854	0.035356964	0.10325436	-1.2953215	0.21216244	-0.079767892	-0.92463484	0.061020609	0.13822371	-1.2711096	0.21487851	-0.00034308228	-0.91458002	0.082264953	0.050915839	-1.3423208	0.26313427	-0.023959736	-0.98566782	0.039950507	0.080059075	-0.97225547	0.39768678	-0.12756119	-0.85421136	0.44112575	0.17057586	-0.95515389	0.37943888	-0.0083294933	-0.89376358	0.43194051	0.048809466	-1.0150834	0.78759168	-0.10303202	-0.97065856	0.79722909	0.23857742	-0.9332364	0.8345453	-0.069149667	-0.88979797	0.8465508	0.17360637	-1.0937516	0.92157344	0.08256614	-0.97179609	1.3270962	-0.10844139	-0.95585202	1.3057157	0.25346256	-1.036739	1.3591637	0.075813671	-1.0050952	1.0072075	-0.16815873	-1.063326	1.006837	0.30583447	-0.82443866	0.83795681	-0.17862669	-0.94969969	0.79604919	0.34376853
70	0.276	-1.2664544	0.082079516	-0.05878455	-0.79295183	0.035375233	0.10326856	-1.2813608	0.21174246	-0.079528814	-0.92475098	0.061066589	0.13830818	-1.2569623	0.21468189	-0.00020756105	-0.91464731	0.082491338	0.051077962	-1.3291618	0.2618036	-0.023430619	-0.98569383	0.040101354	0.080140677	-0.96035625	0.40032908	-0.12756084	-0.85309144	0.4412435	0.17092143	-0.94227902	0.38234013	-0.0082064764	-0.89281297	0.43237627	0.049058514	-1.008954	0.78992068	-0.10279292	-0.96597865	0.79838233	0.2390279	-0.92740603	0.83659593	-0.068666266	-0.88372263	0.84811951	0.17474291	-1.0880652	0.92345516	0.082907573	-0.96662712	1.3291055	-0.10824647	-0.9494691	1.3080053	0.25348663	-1.0309709	1.3610419	0.076089128	-1.0014442	1.0095546	-0.16767047	-1.0558308	1.0086877	0.30673164	-0.82232743	0.83874918	-0.1790248	-0.94022772	0.79873786	0.34395805
71	0.28	-1.250166	0.081774841	-0.058940414	-0.79300049	0.035393441	0.10325837	-1.2674133	0.21107848	-0.079277103	-0.92481284	0.061130097	0.13838542	-1.2422953	0.21427819	-0.00017879018	-0.91467439	0.082733252	0.051219877	-1.3159722	0.26026439	-0.022899697	-0.98570684	0.040269611	0.080220339	-0.94847329	0.4030626	-0.12748595	-0.85190859	0.44140639	0.17129299	-0.92963843	0.38529341	-0.0080569844	-0.89180427	0.43282153	0.049279662	-1.0027924	0.79225246	-0.10257695	-0.96210757	0.79943676	0.23921852	-0.92141926	0.8387071	-0.068131341	-0.87817734	0.84965535	0.17578038	-1.0821349	0.92525251	0.083048591	-0.96143483	1.3311238	-0.10806501	-0.9431933	1.3102828	0.25350109	-1.0252068	1.3629107	0.076378876	-0.99782519	1.0119115	-0.16722694	-1.0483463	1.0105621	0.30766514	-0.82025808	0.83957757	-0.17945372	-0.9307496	0.80147592	0.34411814
